<?xml version="1.0" encoding="UTF-8" standalone="no"?>
<!-- Created with Inkscape (http://www.inkscape.org/) -->

<svg
   width="210mm"
   height="297mm"
   viewBox="0 0 210 297"
   version="1.1"
   id="svg1"
   inkscape:version="1.3.2 (091e20e, 2023-11-25, custom)"
   sodipodi:docname="gear.svg"
   xmlns:inkscape="http://www.inkscape.org/namespaces/inkscape"
   xmlns:sodipodi="http://sodipodi.sourceforge.net/DTD/sodipodi-0.dtd"
   xmlns="http://www.w3.org/2000/svg"
   xmlns:svg="http://www.w3.org/2000/svg">
  <sodipodi:namedview
     id="namedview1"
     pagecolor="#ffffff"
     bordercolor="#000000"
     borderopacity="0.25"
     inkscape:showpageshadow="2"
     inkscape:pageopacity="0.0"
     inkscape:pagecheckerboard="0"
     inkscape:deskcolor="#d1d1d1"
     inkscape:document-units="mm"
     inkscape:zoom="1.1452094"
     inkscape:cx="347.53469"
     inkscape:cy="568.89158"
     inkscape:window-width="1920"
     inkscape:window-height="1147"
     inkscape:window-x="-8"
     inkscape:window-y="-8"
     inkscape:window-maximized="1"
     inkscape:current-layer="layer1" />
  <defs
     id="defs1" />
  <g
     inkscape:label="Sloj 1"
     inkscape:groupmode="layer"
     id="layer1">
    <circle
       style="fill:none;stroke:#000000;stroke-width:0.7"
       id="path1"
       cx="105"
       cy="148.5"
       r="44.435642" />
    <circle
       style="fill:none;stroke:#000000;stroke-width:0.7"
       id="path2"
       cx="105"
       cy="148.5"
       r="18.950495" />
    <path
       style="fill:none;stroke:#000000;stroke-width:3.26712"
       d="m 380.3477,726.59163 c -9.18296,-0.96342 -29.38525,-5.59778 -38.18144,-8.75873 -48.90481,-17.57416 -86.27219,-55.63275 -102.61162,-104.50972 -5.96962,-17.85724 -8.15455,-31.80706 -8.15455,-52.06334 0,-20.32853 2.18518,-34.20696 8.23559,-52.30552 18.79532,-56.22236 64.82482,-97.10636 124.14124,-110.26389 16.58955,-3.67988 46.43313,-3.98647 63.21265,-0.64939 47.48126,9.44297 87.21752,37.11964 112.00291,78.01104 31.27351,51.59563 31.51381,116.9121 0.62239,169.18063 -24.43432,41.34309 -64.92018,69.92905 -111.9508,79.04546 -10.15133,1.96773 -37.7499,3.31712 -47.31637,2.31346 z m 34.45851,-94.29499 c 14.03394,-3.58928 23.43551,-9.03244 34.08715,-19.73519 14.62901,-14.6992 20.98424,-30.23625 20.98424,-51.30161 0,-19.81067 -6.13665,-35.71528 -19.20504,-49.77451 -29.66602,-31.91527 -80.64231,-31.2441 -109.22405,1.43808 -20.57171,23.52299 -23.84457,59.54659 -7.77325,85.55832 5.74931,9.30538 9.07647,13.16555 17.03496,19.76399 17.57324,14.57008 41.53107,19.82204 64.09599,14.05092 z"
       id="path3"
       transform="scale(0.26458333)" />
    <path
       style="fill:#000000;stroke:#000000;stroke-width:3.26712"
       d="m 377.26047,724.12207 c -16.06953,-3.14664 -35.29407,-8.74562 -45.59557,-13.2793 -49.33972,-21.71436 -86.6722,-69.03608 -95.8123,-121.44929 -2.38591,-13.6818 -2.38591,-42.58548 0,-56.26728 5.69891,-32.67997 24.29409,-67.14821 48.51873,-89.93488 22.09674,-20.78507 51.19181,-36.0111 81.36229,-42.5785 13.75915,-2.99504 47.92424,-3.01909 61.87127,-0.0435 57.78522,12.32822 104.325,52.64316 123.48979,106.97263 6.90726,19.58114 8.3234,29.06057 8.20945,54.95284 -0.0973,22.10056 -0.32321,24.28764 -3.89106,37.6643 -6.94694,26.04567 -17.45679,46.50558 -34.20161,66.58157 -23.23552,27.85794 -57.82917,48.18561 -93.67351,55.04376 -9.63841,1.84413 -44.51635,3.46582 -50.27748,2.3377 z m 37.98516,-89.52051 c 3.21948,-0.76938 10.02138,-3.34976 15.11533,-5.73417 12.25324,-5.73561 28.33204,-21.60944 34.33492,-33.89724 8.37912,-17.15193 9.65431,-39.68354 3.31473,-58.56885 -17.56831,-52.33509 -85.7717,-67.76382 -124.85844,-28.24504 -15.63511,15.80793 -22.19719,33.44539 -21.12699,56.78478 0.76031,16.58102 3.61347,25.50845 12.30594,38.50477 17.62667,26.35406 49.55828,38.64917 80.91451,31.15575 z"
       id="path47"
       transform="scale(0.26458333)" />
    <rect
       style="fill:#000000;stroke:#000000;stroke-width:0.7"
       id="rect47"
       width="21.891088"
       height="17.970297"
       x="94.054459"
       y="93.118813"
       ry="6.5346537" />
    <rect
       style="fill:#000000;stroke:#000000;stroke-width:0.7"
       id="rect47-3"
       width="21.891088"
       height="17.970297"
       x="94.054459"
       y="183.42911"
       ry="6.5346537" />
    <rect
       style="fill:#000000;stroke:#000000;stroke-width:0.7"
       id="rect47-9"
       width="21.891088"
       height="17.970297"
       x="140.28944"
       y="-156.26245"
       ry="6.5346537"
       transform="rotate(88.945894)" />
    <rect
       style="fill:#000000;stroke:#000000;stroke-width:0.7"
       id="rect47-3-6"
       width="21.891088"
       height="17.970297"
       x="138.62833"
       y="-65.982727"
       ry="6.5346537"
       transform="rotate(88.945894)" />
    <rect
       style="fill:#000000;stroke:#000000;stroke-width:0.7"
       id="rect47-5"
       width="21.891088"
       height="17.970297"
       x="-42.483322"
       y="124.19638"
       ry="6.5346537"
       transform="rotate(-45.327494)" />
    <rect
       style="fill:#000000;stroke:#000000;stroke-width:0.7"
       id="rect47-3-7"
       width="21.891088"
       height="17.970297"
       x="-42.483322"
       y="214.50667"
       ry="6.5346537"
       transform="rotate(-45.327494)" />
    <rect
       style="fill:#000000;stroke:#000000;stroke-width:0.7"
       id="rect47-9-7"
       width="21.891088"
       height="17.970297"
       x="168.84991"
       y="-19.17605"
       ry="6.5346537"
       transform="rotate(43.6184)" />
    <rect
       style="fill:#000000;stroke:#000000;stroke-width:0.7"
       id="rect47-3-6-6"
       width="21.891088"
       height="17.970297"
       x="167.1888"
       y="71.103668"
       ry="6.5346537"
       transform="rotate(43.6184)" />
    <circle
       style="fill:none;stroke:#ffffff;stroke-width:1.7;stroke-dasharray:10.2, 3.4;stroke-dashoffset:0"
       id="path48"
       cx="104.99986"
       cy="148.50005"
       r="39.207924" />
  </g>
</svg>
